<svg xmlns="http://www.w3.org/2000/svg" xmlns:xlink="http://www.w3.org/1999/xlink" viewBox="0,0,256,256" width="128px" height="128px" fill-rule="nonzero"><g fill="#000000" fill-rule="nonzero" stroke="none" stroke-width="1" stroke-linecap="butt" stroke-linejoin="miter" stroke-miterlimit="10" stroke-dasharray="" stroke-dashoffset="0" font-family="none" font-weight="none" font-size="none" text-anchor="none" style="mix-blend-mode: normal"><path d="M128,256c-70.69245,0 -128,-57.30755 -128,-128v0c0,-70.69245 57.30755,-128 128,-128v0c70.69245,0 128,57.30755 128,128v0c0,70.69245 -57.30755,128 -128,128z" id="shape"></path></g><g fill="#ffffff" fill-rule="nonzero" stroke="none" stroke-width="1" stroke-linecap="butt" stroke-linejoin="miter" stroke-miterlimit="10" stroke-dasharray="" stroke-dashoffset="0" font-family="none" font-weight="none" font-size="none" text-anchor="none" style="mix-blend-mode: normal"><g transform="scale(8,8)"><circle cx="16" cy="4" r="1"></circle><circle cx="19" cy="4" r="1"></circle><circle cx="7" cy="7" r="1"></circle><circle cx="10" cy="7" r="1"></circle><circle cx="22" cy="7" r="1"></circle><circle cx="22" cy="4" r="1"></circle><circle cx="25" cy="7" r="1"></circle><circle cx="7" cy="10" r="1"></circle><circle cx="4" cy="10" r="1"></circle><circle cx="10" cy="10" r="1"></circle><circle cx="13" cy="10" r="1"></circle><circle cx="16" cy="10" r="1"></circle><circle cx="19" cy="10" r="1"></circle><circle cx="22" cy="10" r="1"></circle><circle cx="25" cy="10" r="1"></circle><circle cx="4" cy="13" r="1"></circle><circle cx="10" cy="13" r="1"></circle><circle cx="13" cy="13" r="1"></circle><circle cx="19" cy="13" r="1"></circle><circle cx="22" cy="13" r="1"></circle><circle cx="4" cy="16" r="1"></circle><circle cx="10" cy="16" r="1"></circle><circle cx="22" cy="16" r="1"></circle><circle cx="28" cy="16" r="1"></circle><circle cx="10" cy="19" r="1"></circle><circle cx="13" cy="19" r="1"></circle><circle cx="19" cy="19" r="1"></circle><circle cx="22" cy="19" r="1"></circle><circle cx="28" cy="19" r="1"></circle><circle cx="7" cy="22" r="1"></circle><circle cx="10" cy="22" r="1"></circle><circle cx="13" cy="22" r="1"></circle><circle cx="16" cy="22" r="1"></circle><circle cx="19" cy="22" r="1"></circle><circle cx="22" cy="22" r="1"></circle><circle cx="25" cy="22" r="1"></circle><circle cx="28" cy="22" r="1"></circle><circle cx="7" cy="25" r="1"></circle><circle cx="1" cy="28" r="1"></circle><circle cx="31" cy="4" r="1"></circle><circle cx="10" cy="25" r="1"></circle><circle cx="10" cy="28" r="1"></circle><circle cx="22" cy="25" r="1"></circle><circle cx="25" cy="25" r="1"></circle><circle cx="13" cy="28" r="1"></circle><circle cx="16" cy="28" r="1"></circle></g></g></svg>